<svg xmlns="http://www.w3.org/2000/svg" width="320" height="96" viewBox="0 0 320 96">
  <rect width="320" height="96" fill="none"/>
  <g fill="none" fill-rule="evenodd">
    <path fill="#0F172A" d="M32 28c10.493 0 18 7.435 18 18v22h-9.6V46.34c0-6.64-3.712-10.24-8.96-10.24-5.44 0-9.28 3.84-9.28 11.04V68H12V30.4h9.6v5.632C24 31.84 27.84 28 32 28Z"/>
    <path fill="#0F172A" d="M85.76 28c10.24 0 17.92 7.36 17.92 17.6 0 10.432-7.68 17.792-17.92 17.792-5.44 0-9.92-1.792-12.8-5.312V68H63.36V12h9.6v23.68c2.88-3.648 7.36-5.68 12.8-5.68Zm-2.24 8.96c-5.952 0-10.24 4.16-10.24 8.96 0 5.12 4.288 9.28 10.24 9.28 5.824 0 10.112-4.16 10.112-9.28 0-4.8-4.288-8.96-10.112-8.96Z"/>
    <path fill="#0F172A" d="M135.232 28c9.6 0 16.128 5.952 16.128 14.592 0 8.64-6.528 14.592-16.128 14.592h-14.464c1.152 4.992 5.632 8 11.2 8 3.584 0 6.944-1.088 10.176-3.328l4.8 7.168c-4.352 3.456-10.24 5.44-16.128 5.44-12.224 0-20.928-7.68-20.928-18.688C110.88 35.84 119.584 28 131.84 28h3.392Zm-3.648 8.96c-5.44 0-9.216 3.2-10.432 8.192h13.184c4.096 0 6.656-1.92 6.656-4.736 0-2.56-2.432-3.456-6.08-3.456h-3.328Z"/>
    <path fill="#0F172A" d="M183.936 28c9.6 0 16.128 5.952 16.128 14.592 0 8.64-6.528 14.592-16.128 14.592h-14.464c1.152 4.992 5.632 8 11.2 8 3.584 0 6.944-1.088 10.176-3.328l4.8 7.168c-4.352 3.456-10.24 5.44-16.128 5.44-12.224 0-20.928-7.68-20.928-18.688C159.584 35.84 168.288 28 180.544 28h3.392Zm-3.648 8.96c-5.44 0-9.216 3.2-10.432 8.192h13.184c4.096 0 6.656-1.92 6.656-4.736 0-2.56-2.432-3.456-6.08-3.456h-3.328Z"/>
    <path fill="#00ADE8" d="M205.76 63.36c3.136 0 5.76 2.56 5.76 5.76 0 3.072-2.624 5.632-5.76 5.632-3.136 0-5.696-2.56-5.696-5.632 0-3.2 2.56-5.76 5.696-5.76Z"/>
  </g>
</svg>

